<svg version="1.1" id="Layer_1" xmlns="http://www.w3.org/2000/svg" xmlns:xlink="http://www.w3.org/1999/xlink" x="0px" y="0px"
	 width="100%" viewBox="0 0 1024 1024" enable-background="new 0 0 1024 1024" xml:space="preserve">
<path fill="#000000" opacity="1.000000" stroke="none" 
	d="
M235.326431,543.582336 
	C221.191635,512.818542 207.213882,482.399231 193.247437,451.974731 
	C192.066284,449.401733 191.111298,446.714508 189.792709,444.216888 
	C185.446381,435.984222 185.788162,428.541016 193.310501,422.333740 
	C192.644135,418.743103 190.357056,416.169952 189.030533,413.153870 
	C185.669891,405.512970 187.656754,399.486206 194.973190,395.454559 
	C203.861862,390.556488 203.871490,390.554260 201.516449,380.548798 
	C198.096329,366.018341 191.709457,353.679932 178.878494,344.764069 
	C166.241852,335.983337 162.091995,318.169800 167.726624,302.892975 
	C173.063705,288.422852 186.923492,279.110626 202.251312,279.696228 
	C218.308853,280.309692 232.023010,290.897980 236.494049,305.795776 
	C238.405533,312.165009 239.035202,318.618347 237.889542,325.038696 
	C236.651794,331.975067 238.049103,338.279663 240.890289,344.419769 
	C244.189514,351.549774 248.808640,357.912628 252.923157,364.569580 
	C254.713593,367.466339 256.788025,367.732880 259.593750,366.142120 
	C262.199280,364.664856 264.893433,363.323608 267.626099,362.094971 
	C273.790375,359.323486 279.508362,360.891663 283.442566,366.437134 
	C284.592560,368.058105 285.513489,369.851685 286.443024,371.616943 
	C288.691772,375.887329 289.794983,380.553833 297.008453,379.338684 
	C301.810120,378.529846 305.868805,382.673706 308.008881,387.433899 
	C313.468292,399.577362 318.852509,411.754669 324.254822,423.923798 
	C339.720856,458.761963 355.155762,493.614014 370.693756,528.420044 
	C371.866394,531.046814 372.650543,534.078918 375.518951,536.084717 
	C377.800110,532.445740 378.449554,528.472900 379.685150,524.753113 
	C386.072266,505.524963 396.876801,489.120880 411.519714,475.262787 
	C414.431915,472.506683 415.411041,469.726929 415.877319,465.811584 
	C416.968597,456.648132 413.997711,451.880005 404.915955,448.172058 
	C378.550323,437.407166 360.274780,417.802612 351.389648,390.837128 
	C341.729156,361.518555 345.121429,332.763031 360.958862,306.198242 
	C377.453674,278.530823 401.387207,260.297211 433.525452,254.599915 
	C466.303497,248.789185 495.699280,256.293976 520.234863,279.563721 
	C523.027344,282.212158 524.782043,282.131744 527.830994,280.341461 
	C565.279236,258.353455 614.341248,264.219666 645.938721,293.938354 
	C660.400024,307.539734 670.541077,323.409241 675.452576,342.758911 
	C686.591187,386.641357 661.777222,436.784576 615.596191,451.323639 
	C611.488037,452.617004 610.530518,454.556122 610.113403,458.662598 
	C609.174805,467.903748 612.534302,474.334290 619.054749,480.929260 
	C634.353027,496.402435 643.700195,515.398926 648.433350,536.720154 
	C651.456177,550.337158 652.730042,563.930664 650.513306,577.780884 
	C649.815491,582.140564 650.906311,582.360107 655.073792,581.439026 
	C663.083984,579.668701 664.538635,574.370117 664.770325,567.267944 
	C665.606201,541.646423 666.429504,516.014160 667.975342,490.429352 
	C669.196777,470.213226 669.737366,449.819122 675.733276,430.203705 
	C684.523499,401.446747 700.905151,378.471497 727.882690,364.218323 
	C737.287720,359.249298 747.571655,356.111969 758.226562,354.574921 
	C761.249451,354.138824 764.678162,354.557373 766.130188,350.636902 
	C767.525085,346.870392 765.003845,344.998810 763.107727,342.420624 
	C760.197510,338.463684 756.348083,334.770477 756.050964,327.774994 
	C761.599487,332.504120 764.331238,337.602814 766.779663,342.688110 
	C768.464539,346.187500 771.057190,349.021393 772.743591,352.466339 
	C773.526550,354.065796 775.174194,354.452606 776.950806,354.678070 
	C815.799622,359.608948 843.327271,385.278992 851.275757,424.322296 
	C856.763062,451.275909 850.697021,476.186554 836.856079,499.478668 
	C825.409180,518.741760 809.887329,534.566284 793.570923,549.617432 
	C785.312622,557.235413 777.475952,565.070068 772.415771,575.251465 
	C771.119446,577.859741 769.695435,579.881653 766.290710,578.631104 
	C764.411377,577.940918 763.073669,579.210388 761.861694,580.311035 
	C751.140442,590.047363 739.975220,599.298157 729.872803,609.715027 
	C727.852478,611.798218 727.075134,613.591919 728.838013,616.222778 
	C730.598633,618.850220 730.497620,621.924316 730.157471,624.940369 
	C729.753174,628.524292 726.798950,631.897583 729.932312,635.801270 
	C730.844604,636.937927 728.740417,638.674377 727.726990,639.965271 
	C712.131470,659.830200 693.073669,675.689636 671.873718,689.293518 
	C638.037903,711.005737 600.905457,724.360657 561.937561,732.729187 
	C525.340393,740.588623 488.629761,740.399414 452.048859,731.564026 
	C439.268738,728.477295 426.382935,725.739441 413.994720,721.366150 
	C387.919922,712.161377 362.175659,702.221375 339.208435,686.247620 
	C333.307098,682.143188 332.291504,675.965454 329.915375,670.229980 
	C328.579346,667.004883 327.388947,663.719788 326.109528,660.470947 
	C324.874939,657.335938 322.906830,656.879089 319.765656,658.119568 
	C304.520752,664.140076 298.222595,661.602600 291.114655,646.514404 
	C289.202942,642.456421 287.087616,639.164612 282.578308,637.418457 
	C277.762543,635.553528 275.627289,630.887756 273.585205,626.486938 
	C262.299042,602.164429 251.071716,577.814636 239.830246,553.471375 
	C238.364609,550.297546 236.933533,547.107849 235.326431,543.582336 
M480.189819,389.980774 
	C486.308746,394.253876 487.081787,400.014313 482.274628,405.580048 
	C479.791382,408.455170 476.577545,410.101166 472.986877,411.161194 
	C461.757263,414.476440 450.554565,413.346710 439.383301,410.917999 
	C436.472321,410.285126 434.336304,410.329376 434.340302,414.089783 
	C434.355652,428.420929 434.370972,442.752106 434.371948,457.083252 
	C434.372162,460.334564 436.026855,461.158661 438.918335,460.306580 
	C442.263916,459.320587 445.603973,458.313293 448.965424,457.384155 
	C489.952698,446.054230 531.032532,445.406403 572.198425,456.386749 
	C578.412720,458.044281 584.593262,459.828613 590.799927,461.557220 
	C592.135498,459.416901 591.829651,457.544403 591.835754,455.770996 
	C591.880249,442.774017 591.892944,429.776855 591.873901,416.779785 
	C591.865967,411.372192 591.141418,410.819122 585.608765,411.751343 
	C578.364014,412.972015 571.084778,413.807922 563.734192,413.140808 
	C556.971252,412.527039 550.585449,410.704620 545.503235,405.913269 
	C540.998474,401.666351 540.438782,395.459015 543.957581,391.558594 
	C547.367249,387.779205 552.336853,387.677643 557.321289,391.674225 
	C560.893677,394.538666 564.764465,395.651215 569.303040,395.742310 
	C578.745483,395.931763 587.789368,394.144958 596.782593,391.484375 
	C606.259338,388.680786 610.855286,392.204865 610.926147,402.021912 
	C610.983887,410.017822 610.857178,418.015167 610.930054,426.010803 
	C610.948669,428.056610 610.284241,430.401520 612.575684,432.080933 
	C613.633423,431.762299 614.779541,431.534241 615.829895,431.083221 
	C634.624084,423.013031 647.861877,409.224030 654.415833,390.101868 
	C664.429565,360.884918 658.166992,334.814392 636.937683,312.192505 
	C605.682251,278.886810 554.667542,278.958496 525.946960,305.333405 
	C521.368408,309.538025 519.131409,309.193085 515.183167,304.504211 
	C514.325317,303.485443 513.555237,302.393341 512.720886,301.354156 
	C494.495667,278.654755 470.522461,269.349396 442.033936,272.579132 
	C392.719635,278.169922 360.176971,324.939056 366.139526,369.126526 
	C369.954865,397.401306 384.883362,417.251862 410.059113,429.862976 
	C411.594482,430.632111 413.151855,431.973602 415.718903,430.698883 
	C415.718903,421.143280 415.640411,411.347504 415.741028,401.553558 
	C415.841492,391.770935 419.967102,388.588409 429.449524,391.088257 
	C436.215759,392.872070 442.985535,394.668396 449.954407,395.276123 
	C457.034546,395.893555 464.204681,396.903595 470.153656,391.026001 
	C472.563568,388.645081 476.032654,387.897919 480.189819,389.980774 
M437.656586,649.842590 
	C439.979523,650.755249 442.232697,652.157349 444.636871,652.500000 
	C458.643005,654.496399 472.614075,656.643311 486.421448,659.776489 
	C504.685242,663.921021 523.242676,660.450439 541.617981,661.810425 
	C543.091736,661.919617 544.598511,661.567627 546.091003,661.442688 
	C554.569153,660.733032 562.839661,658.923096 571.027466,656.698059 
	C588.451599,651.962952 603.095581,642.960999 613.822449,628.227539 
	C626.663696,610.589966 632.714600,590.744629 633.126160,568.957031 
	C633.533630,547.385132 628.385254,527.446106 616.872314,509.192657 
	C615.945007,507.722351 615.138428,505.530090 612.980225,505.758087 
	C610.639282,506.005432 610.796570,508.374054 610.377441,510.076691 
	C608.608643,517.260559 603.320129,520.197998 596.381104,516.982178 
	C573.971130,506.596313 550.133545,501.967499 525.810547,500.596985 
	C493.259979,498.762909 461.189331,502.174408 431.148407,515.990417 
	C422.708282,519.872070 415.880157,514.923828 415.916412,506.425385 
	C415.924225,504.597198 416.610474,502.415924 414.482635,500.746613 
	C410.615662,503.342072 408.254181,507.179474 406.054138,511.018890 
	C388.716858,541.274963 386.836029,572.826233 398.962769,605.228516 
	C406.180939,624.515198 417.618774,640.509216 437.656586,649.842590 
M784.863037,424.231567 
	C770.576965,460.347473 753.615601,495.263306 737.080872,530.364197 
	C726.719910,552.358948 715.875488,574.125854 705.274963,596.008057 
	C704.586548,597.429138 703.297974,598.842834 704.655823,600.588623 
	C707.083069,603.709534 712.055176,603.866760 714.935547,600.877869 
	C734.248169,580.837219 755.182068,562.477112 774.974060,542.928589 
	C791.685303,526.422913 809.291016,510.652954 821.231934,490.104431 
	C836.533875,463.772095 840.583740,436.561066 825.633545,408.408112 
	C811.066162,380.975891 782.812256,367.515106 753.077759,374.694519 
	C722.289307,382.128448 704.280090,403.203339 694.473083,432.107727 
	C688.544250,449.581879 686.950134,467.834930 686.281006,486.199951 
	C685.747803,500.830475 684.860840,515.450928 683.939575,530.063782 
	C682.808838,547.997986 681.488220,565.920288 680.223083,583.845825 
	C680.073853,585.961121 680.386536,587.674255 682.327515,589.046936 
	C687.533447,592.728516 689.282959,592.430359 692.158752,586.463745 
	C715.443176,538.154480 737.796204,489.412018 759.790100,440.504883 
	C764.227173,430.638275 768.247681,420.584564 772.481384,410.626129 
	C773.344177,408.596802 774.311584,406.625275 772.447021,404.610291 
	C770.690063,402.711578 768.752625,403.792938 766.858215,404.213562 
	C763.423279,404.976318 760.235046,406.306793 757.106506,407.956055 
	C740.616577,416.648926 731.953491,431.469940 726.344238,448.239166 
	C717.717957,474.027618 713.773193,500.949524 708.289246,527.490906 
	C706.807922,534.660217 705.648621,541.898499 704.059326,549.042358 
	C702.819824,554.614014 698.612244,557.914185 694.349915,557.182312 
	C690.108398,556.454041 688.436951,553.493835 688.669128,547.092590 
	C688.705383,546.094910 688.708923,545.085144 688.869873,544.104309 
	C693.526062,515.727112 698.477966,487.394043 704.917664,459.367645 
	C708.737000,442.745087 714.318665,426.664856 725.105042,412.998749 
	C738.369995,396.192444 754.536560,385.064392 777.179810,387.050323 
	C778.899597,387.201172 779.907410,386.265411 781.146362,385.391235 
	C786.754944,381.433777 794.969421,384.189545 796.872803,390.834045 
	C797.468140,392.912445 798.404480,394.333954 799.976624,395.685028 
	C814.346802,408.035126 818.747498,424.409058 817.755066,442.431458 
	C816.809631,459.599182 810.022461,475.039581 801.414734,489.668945 
	C789.362366,510.152527 773.911377,528.105286 758.649902,546.163940 
	C752.213806,553.779602 745.862671,561.539490 738.097412,567.925049 
	C735.838867,569.782227 733.329163,570.437134 730.732361,568.742371 
	C728.161682,567.064758 726.928101,564.648438 727.371521,561.483154 
	C727.752991,558.760254 728.851990,556.334961 730.557373,554.250854 
	C742.152039,540.080872 753.982666,526.099609 765.374146,511.768921 
	C778.575989,495.160675 790.764954,477.807953 797.371521,457.368561 
	C801.802246,443.660980 801.812256,429.845306 795.240356,416.563782 
	C794.327881,414.719757 793.716980,412.439148 790.893677,412.045166 
	C787.809448,415.283356 786.768616,419.551331 784.863037,424.231567 
M248.256805,525.356812 
	C250.021866,529.862427 251.768921,534.278687 256.115967,537.192810 
	C258.062622,538.497742 258.984741,541.592529 262.189331,540.229553 
	C265.282501,538.913940 265.974762,536.170166 265.921661,533.207458 
	C265.843231,528.834045 268.296509,526.268311 272.048676,525.074036 
	C277.694000,523.277161 282.712067,520.430237 287.481140,517.030457 
	C289.975922,515.252014 292.464478,514.823975 295.418701,516.249084 
	C303.089630,519.949158 303.614014,519.567444 303.949860,511.104126 
	C303.969727,510.604553 303.966431,510.103302 304.006226,509.605438 
	C304.561127,502.661591 307.247253,500.120941 314.130890,500.014587 
	C315.795258,499.988861 317.686890,500.455536 319.082001,499.826416 
	C323.708618,497.740173 325.941406,500.400818 327.827179,503.806732 
	C329.113373,506.129852 330.475769,508.508850 331.184937,511.036560 
	C334.316711,522.199524 340.333588,532.049622 345.225037,542.404663 
	C347.084320,546.340759 348.797882,550.241638 349.681549,554.540161 
	C350.351196,557.797424 349.338379,560.002075 346.674194,561.765686 
	C341.811157,564.984741 336.494049,565.609131 330.879913,564.735779 
	C322.749786,563.471008 321.216644,564.281677 316.867035,570.964966 
	C313.610168,575.969238 310.593048,581.204285 305.649078,584.896912 
	C303.111725,586.792114 301.763550,589.303467 301.921844,592.649231 
	C301.997955,594.257507 302.544281,596.464478 299.941956,597.017639 
	C295.253571,590.163208 289.330322,588.126892 283.622650,591.299561 
	C281.348450,592.563599 280.251892,593.961426 281.116089,596.912048 
	C282.811737,602.701416 285.624084,608.010803 287.702118,613.626526 
	C288.930695,616.946716 291.678040,617.416138 294.717834,616.561829 
	C302.311127,614.427856 309.807495,611.893250 317.242523,609.346436 
	C326.973724,606.013000 336.247131,601.320862 345.650391,597.064880 
	C348.970367,595.562195 352.459686,594.326538 355.359528,591.983093 
	C358.650879,589.323303 362.311981,587.593262 366.556335,586.843262 
	C374.348572,585.466431 375.547302,583.157654 372.410553,576.043457 
	C356.752777,540.531494 341.114075,505.010956 325.362183,469.540710 
	C315.491821,447.314575 305.368835,425.200592 295.516205,402.966705 
	C293.656982,398.771149 291.514801,398.246185 287.458649,400.162079 
	C273.006744,406.988342 258.409790,413.508179 243.851334,420.107819 
	C232.626129,425.196442 221.368210,430.212982 210.147034,435.310455 
	C208.638947,435.995514 206.874771,436.888184 207.786484,439.014771 
	C208.727722,441.210175 210.534103,440.330353 212.079010,439.737823 
	C214.560043,438.786255 216.973389,437.648499 219.481461,436.780548 
	C221.198700,436.186310 222.428268,437.023407 222.869568,438.764862 
	C223.265427,440.327118 224.175659,442.107452 222.353592,443.316437 
	C220.965622,444.237335 219.482513,444.024536 218.321320,442.683624 
	C217.698456,441.964386 217.339127,440.850433 216.743805,441.201782 
	C209.676620,446.939972 214.100555,452.433075 216.610352,457.706818 
	C227.201355,479.961212 236.616333,502.765045 248.256805,525.356812 
M620.338745,655.920837 
	C594.727295,670.973083 566.625183,678.046204 537.442688,681.256775 
	C516.514282,683.559265 495.625153,682.627869 474.763489,679.463867 
	C438.859100,674.018311 406.450409,661.131958 379.358093,636.323730 
	C378.584900,635.615662 378.037750,634.351624 376.598297,634.655029 
	C376.139038,635.864746 376.621185,636.946228 376.824738,638.084778 
	C379.224640,651.509949 390.075317,658.342285 399.244415,666.283569 
	C404.765289,671.065063 412.136993,673.094055 418.708252,676.095703 
	C455.339630,692.828247 494.213745,696.874756 533.890747,694.096008 
	C548.328125,693.084961 562.560974,691.575256 576.816040,695.225037 
	C580.629822,696.201477 584.398438,697.043701 586.364258,700.813538 
	C590.867249,709.449036 596.411011,709.150635 603.733704,702.874756 
	C612.012390,695.779419 618.618652,686.617920 621.539307,676.184448 
	C624.023315,667.310730 629.330139,661.685608 636.175964,656.902893 
	C644.352844,651.190308 650.167847,643.827148 654.250610,634.801147 
	C657.678528,627.223022 661.586182,619.862122 665.267151,612.397949 
	C667.139404,608.601257 669.430054,607.160339 673.504578,609.956299 
	C677.470276,612.677612 681.827148,614.829102 686.012085,617.231079 
	C687.708984,618.205017 689.689575,619.964478 691.174988,617.499390 
	C692.817627,614.773621 690.250427,613.753662 688.355042,612.738037 
	C681.018860,608.807129 673.606384,605.013550 666.351074,600.939392 
	C663.320068,599.237244 661.597473,599.743225 660.034851,602.808716 
	C656.332458,610.072571 652.429871,617.234497 648.592712,624.429321 
	C647.946350,625.641357 647.249573,626.869019 648.447754,628.075623 
	C651.595886,631.245850 649.347046,633.428589 647.111633,635.589661 
	C639.175964,643.261414 630.329041,649.742554 620.338745,655.920837 
M499.607056,466.267059 
	C492.750153,466.215942 486.012268,467.421021 479.256714,468.322235 
	C465.863495,470.108887 452.734192,473.163818 439.860687,477.256104 
	C437.754517,477.925629 434.728516,478.231140 434.544281,481.078186 
	C434.261505,485.446686 433.704468,489.923706 435.147217,494.801331 
	C487.174316,477.495667 538.978210,478.037231 590.583191,494.744232 
	C593.785156,484.785736 591.489685,478.592255 583.975098,476.543365 
	C556.680481,469.101318 529.024231,464.457001 499.607056,466.267059 
M195.269333,300.516052 
	C194.576950,300.977142 193.880356,301.432098 193.192841,301.900330 
	C181.958862,309.550995 182.077637,322.830963 193.627548,329.758850 
	C199.136536,333.063202 202.976822,337.664276 205.883057,343.204895 
	C210.742371,352.469025 215.332443,361.842529 218.810562,371.752014 
	C220.677261,377.070374 226.766296,379.402161 231.495377,377.127625 
	C236.006088,374.958099 236.256042,372.428375 232.359299,366.189056 
	C223.499039,352.002380 216.869339,337.602448 219.245377,319.807922 
	C221.023407,306.492065 208.275986,296.751312 195.269333,300.516052 
M377.333618,603.378418 
	C375.350037,601.535156 373.524841,603.066345 371.837494,603.822205 
	C351.830170,612.784790 331.853760,621.816528 311.880066,630.854065 
	C308.817505,632.239807 306.098846,634.132874 307.470551,638.042542 
	C308.826385,641.906921 312.346924,640.616943 315.186005,640.573486 
	C316.127380,640.559143 317.083710,640.006104 317.992554,639.606750 
	C337.751068,630.926208 357.486084,622.191772 377.277649,613.587341 
	C380.117859,612.352600 380.527954,610.636536 379.463806,608.096191 
	C378.886658,606.718506 378.292694,605.347778 377.333618,603.378418 
M376.107971,675.031311 
	C373.050507,665.713196 368.145782,657.246277 363.939972,648.452332 
	C357.945312,635.918030 360.244141,636.742920 347.318756,642.852661 
	C342.365234,645.194153 341.186920,649.530640 344.011444,654.325073 
	C346.328705,658.258362 349.707703,661.140991 353.093628,664.123779 
	C357.730255,668.208313 363.749725,670.600342 367.828918,674.950745 
	C371.101288,678.440735 372.894775,678.094849 376.107971,675.031311 
M258.280853,390.697754 
	C260.534210,388.990540 262.891663,386.684296 265.829376,388.597137 
	C268.600769,390.401642 270.179474,389.110321 271.729218,387.243011 
	C273.191895,385.480652 272.938904,383.482178 271.730927,381.682098 
	C269.887085,378.934509 267.801697,380.930939 266.049011,381.726654 
	C249.572891,389.206757 233.135452,396.772552 216.720459,404.386108 
	C215.127426,405.124939 212.903961,405.559204 212.888931,408.235596 
	C215.832520,408.855255 218.025452,407.480347 220.119141,406.309448 
	C226.657822,402.652618 233.647491,399.994507 240.409744,396.836914 
	C244.464828,394.943359 248.535339,393.871704 253.207794,396.592834 
	C253.281815,393.301941 255.268356,391.987000 258.280853,390.697754 
z"/>
<path fill="#000000" opacity="1.000000" stroke="none" 
	d="
M625.666626,264.238495 
	C610.228821,237.597580 610.678711,211.113098 624.939453,184.631729 
	C629.105652,176.895447 637.643921,174.071793 645.529053,178.161545 
	C670.641907,191.186646 695.588684,204.532196 720.583191,217.784912 
	C727.787231,221.604660 735.018677,225.384827 742.085693,229.447327 
	C748.698853,233.248917 750.953796,239.834930 748.528564,247.021912 
	C738.936157,275.448120 711.159424,295.619232 681.188416,295.141541 
	C657.528564,294.764404 639.179260,284.011932 625.666626,264.238495 
M642.315308,255.228241 
	C647.091919,263.467346 654.102539,269.004486 662.763062,272.835663 
	C668.604919,275.419952 673.051453,272.227936 678.000488,270.981995 
	C677.715942,269.230133 676.987854,268.834900 676.286621,268.372192 
	C671.134827,264.972656 671.004700,263.376556 675.356628,258.930908 
	C677.391846,256.851807 679.063965,254.349930 678.759399,251.416550 
	C678.473633,248.664978 679.019348,244.816635 674.909485,244.279510 
	C671.033691,243.772949 670.000244,246.953598 669.060730,249.897491 
	C668.606018,251.322342 668.363403,252.872940 667.630920,254.138718 
	C666.197144,256.616486 664.500000,258.861511 661.093689,258.739563 
	C654.846985,258.515930 651.348267,254.151718 647.910461,249.892441 
	C646.592529,248.259567 647.910950,246.916977 649.585571,245.958557 
	C653.074524,243.961731 655.664062,241.073349 657.874084,237.431396 
	C652.215820,233.999939 647.155640,234.940857 642.078857,238.242676 
	C640.396851,235.589355 641.331116,234.057541 643.565308,233.429138 
	C645.448303,232.899506 647.516846,233.066544 649.485107,232.794220 
	C652.778381,232.338608 656.415283,232.811432 659.172485,229.573624 
	C654.708130,226.036942 649.506409,225.512863 644.594727,224.187836 
	C642.423523,223.602097 639.579468,223.384720 640.001282,220.065933 
	C640.355408,217.279953 640.798523,214.414780 641.809509,211.821396 
	C644.005188,206.189178 645.339233,205.780518 650.741943,208.619110 
	C669.758911,218.610703 688.756348,228.642715 708.325378,237.528809 
	C713.670044,239.955750 719.170593,242.055740 719.674133,249.231216 
	C723.795044,246.541275 724.204773,243.276733 720.732605,241.009018 
	C717.831238,239.114136 714.348938,238.109604 711.444946,236.217880 
	C696.764404,226.654572 681.146790,218.786377 665.700073,210.604858 
	C657.217529,206.112030 648.729309,201.629868 640.338562,197.193054 
	C631.337158,210.040466 629.652466,237.328705 642.315308,255.228241 
M700.825745,263.795837 
	C696.429810,264.592255 691.426270,264.069183 688.549500,269.564728 
	C691.877625,271.009613 695.085632,273.711395 697.973633,273.404236 
	C705.806885,272.571045 711.796997,268.045227 715.673401,261.045074 
	C716.323303,259.871429 716.685486,258.477234 715.544128,257.329956 
	C714.330322,256.109833 713.153870,256.799530 711.943909,257.510284 
	C708.500000,259.533234 705.018738,261.492462 700.825745,263.795837 
M712.275757,252.197784 
	C714.785278,250.337143 713.994080,248.603088 711.986816,247.048111 
	C711.025024,246.303040 709.589661,245.909195 708.862976,247.018112 
	C707.393127,249.260986 709.148315,250.625092 710.720032,251.888657 
	C710.965149,252.085663 711.320374,252.145782 712.275757,252.197784 
z"/>
<path fill="#000000" opacity="1.000000" stroke="none" 
	d="
M221.166168,705.194641 
	C228.741302,695.876648 235.989105,686.747559 243.464600,677.808960 
	C249.843765,670.181152 255.068466,669.553833 262.736816,675.735474 
	C270.509583,682.001465 278.235565,688.408264 284.522797,696.245728 
	C295.153992,709.498230 295.768127,724.942566 286.367096,737.132385 
	C280.389984,744.882507 272.923676,747.623230 258.915192,747.093079 
	C257.233429,752.199463 259.204376,757.206421 259.813171,762.163513 
	C260.816803,770.334839 256.795837,776.413757 249.133682,777.170532 
	C242.016968,777.873535 237.189529,773.010376 236.656296,764.775391 
	C236.054214,755.477600 235.318329,746.188416 234.678268,736.892944 
	C234.534775,734.809143 234.029480,732.981262 231.832428,731.659119 
	C229.351242,732.942749 227.785400,735.300720 225.913513,737.350525 
	C223.786957,739.679321 221.717316,742.133240 219.257645,744.068481 
	C214.781418,747.590576 208.410873,747.244263 204.559021,743.646606 
	C200.408127,739.769592 199.487045,734.075012 202.493149,729.060608 
	C206.274490,722.753052 211.319946,717.381287 215.856979,711.634827 
	C217.507339,709.544495 219.241653,707.520508 221.166168,705.194641 
M263.549438,726.451538 
	C267.187408,724.959167 268.735077,721.950867 269.264069,718.318420 
	C269.924957,713.780151 261.726624,702.716980 257.189148,701.860413 
	C256.075958,701.650208 255.230438,702.145569 254.494644,702.815186 
	C250.918991,706.068848 248.175491,710.033813 245.209427,713.806641 
	C244.636230,714.535767 244.815125,715.278259 245.171402,716.117920 
	C247.837570,722.401001 255.883835,727.235962 263.549438,726.451538 
z"/>
<path fill="#000000" opacity="1.000000" stroke="none" 
	d="
M413.033112,188.037445 
	C426.570618,173.008987 443.525269,168.697235 462.273834,172.292084 
	C481.351074,175.949951 494.355835,187.712036 501.034027,206.059021 
	C503.978699,214.149002 504.808197,222.610016 503.361908,231.099594 
	C501.699371,240.858444 496.370941,245.247849 486.512848,245.265854 
	C462.705292,245.309341 438.897461,245.264832 415.089935,245.187943 
	C408.092468,245.165344 402.886108,242.300613 400.595459,235.281860 
	C400.022949,233.527618 399.425262,231.795578 396.195831,231.350586 
	C400.300323,229.608475 399.646637,226.633774 399.608307,223.892365 
	C399.418732,210.324799 403.615967,198.393494 413.033112,188.037445 
M482.889221,224.428009 
	C483.828949,223.525497 483.826965,222.360031 483.795715,221.185760 
	C483.373993,205.359833 469.323212,191.302261 453.294220,190.350845 
	C437.910217,189.437714 420.684021,200.653030 419.229340,221.501465 
	C418.934875,225.721298 421.333893,226.069290 424.491241,226.056320 
	C441.943542,225.984695 459.396027,225.960678 476.848450,225.920425 
	C478.697754,225.916168 480.490875,225.634109 482.889221,224.428009 
z"/>
<path fill="#000000" opacity="1.000000" stroke="none" 
	d="
M663.060852,764.852295 
	C661.249573,761.057556 659.444702,757.668152 657.987427,754.135376 
	C655.080627,747.088623 656.773926,741.141541 663.397034,737.424561 
	C674.421631,731.237427 685.593933,725.286499 696.924500,719.681946 
	C703.827698,716.267273 711.447998,718.950317 714.002441,724.911438 
	C716.281982,730.230896 714.192871,736.139343 708.500366,739.244934 
	C701.782776,742.909668 695.021057,746.560059 688.011963,749.602661 
	C682.294189,752.084656 685.325684,755.178284 686.591736,758.389099 
	C688.222717,762.525085 690.794006,761.700867 693.708008,759.897034 
	C697.103638,757.794983 700.501282,755.676697 704.026428,753.807678 
	C709.749878,750.773193 716.526062,752.467957 719.343994,757.447876 
	C722.346008,762.753296 720.532104,768.790894 714.607605,772.322144 
	C710.610535,774.704651 706.519287,776.996704 702.264893,778.860657 
	C698.094910,780.687683 698.037048,782.974304 699.865723,786.681213 
	C701.726074,790.452087 703.696716,790.974670 707.230835,788.878296 
	C713.525269,785.144470 719.987976,781.690125 726.431885,778.214478 
	C729.525513,776.545959 732.796204,775.072571 736.425354,775.954956 
	C740.794922,777.017334 743.916138,779.713196 744.932007,784.179932 
	C746.042786,789.064270 744.206055,793.134155 740.225952,795.957275 
	C732.192261,801.655945 723.057678,805.449585 714.572449,810.381226 
	C710.403442,812.804199 706.146667,815.106262 701.792236,817.173889 
	C693.435425,821.141907 688.276672,819.362732 684.339722,810.978333 
	C677.196655,795.765625 670.251953,780.459717 663.060852,764.852295 
z"/>
<path fill="#000000" opacity="1.000000" stroke="none" 
	d="
M308.714905,814.310913 
	C303.014191,811.493835 297.558563,809.002441 292.294983,806.155945 
	C286.060760,802.784607 284.056854,797.849854 287.200958,791.521484 
	C296.901276,771.997192 306.819550,752.575195 317.034088,733.315491 
	C320.774048,726.263733 327.002563,724.369751 333.980225,727.562927 
	C345.023682,732.616699 355.915100,738.005920 366.825592,743.345581 
	C370.336334,745.063782 373.377625,747.400024 374.325104,751.516296 
	C375.347565,755.958557 374.180054,759.809021 370.731873,762.786316 
	C366.745575,766.228210 362.063354,766.253174 357.593323,764.285156 
	C351.050293,761.404541 344.671112,758.128906 338.344971,754.788879 
	C335.582703,753.330505 333.418060,752.557007 332.102173,756.287720 
	C331.014679,759.370972 327.142639,762.689392 333.034332,765.110229 
	C337.032532,766.753052 341.003052,768.488098 344.877808,770.401001 
	C351.587250,773.713379 353.827179,778.776184 351.339539,784.520569 
	C348.797302,790.391052 342.206787,792.886597 335.776642,790.144531 
	C331.343353,788.253967 326.934753,786.221008 322.766968,783.815369 
	C318.230377,781.196777 317.605621,784.746033 315.919952,787.359070 
	C313.844391,790.576477 314.647095,792.481445 317.909851,793.984070 
	C323.199341,796.419739 328.439453,798.963013 333.690125,801.482422 
	C335.637665,802.416809 337.634674,803.282837 339.473755,804.402405 
	C345.688812,808.185974 347.629578,813.446777 345.031036,819.119568 
	C342.591461,824.445312 336.443420,827.134094 330.181732,824.609009 
	C322.950470,821.692871 316.074951,817.894653 308.714905,814.310913 
z"/>
<path fill="#000000" opacity="1.000000" stroke="none" 
	d="
M795.691406,759.848511 
	C787.879639,764.086060 779.980896,766.172607 771.380798,765.349976 
	C764.161499,764.659363 759.515625,760.104614 759.697205,753.597961 
	C759.865906,747.551697 764.300415,743.874817 771.706970,743.671448 
	C773.537170,743.621094 775.374023,743.729797 777.200134,743.627747 
	C783.605835,743.269836 790.303772,738.190247 792.190247,732.120239 
	C793.047668,729.361206 793.280518,726.556702 790.985535,724.177795 
	C788.518799,721.620789 785.815857,722.421204 783.167053,723.652344 
	C775.354675,727.283447 768.120911,732.103333 759.376160,733.733459 
	C744.879883,736.435852 730.863464,726.056152 729.709900,711.354736 
	C728.120789,691.100952 743.433960,672.826355 763.648010,671.118042 
	C768.843750,670.678894 773.668579,672.078796 776.641113,676.871094 
	C778.872803,680.468872 778.584595,684.148315 776.186523,687.662292 
	C774.387695,690.298218 771.868469,691.724243 768.775757,692.263611 
	C766.647400,692.634888 764.490723,692.909363 762.406738,693.455933 
	C757.766418,694.672913 754.328796,697.428284 752.772278,702.051697 
	C750.978455,707.380066 754.884644,711.761658 760.427246,710.881775 
	C764.339294,710.260620 767.430115,707.911133 770.804749,706.145630 
	C778.040161,702.360107 785.271118,698.265076 793.841736,699.222900 
	C811.250244,701.168579 817.413147,717.079773 815.833679,730.115479 
	C814.254028,743.152832 807.362610,752.994202 795.691406,759.848511 
z"/>
<path fill="#000000" opacity="1.000000" stroke="none" 
	d="
M544.585205,848.148499 
	C544.607605,855.643921 540.294678,860.417297 533.619080,860.770813 
	C526.618652,861.141541 521.381226,856.852966 520.808838,849.606934 
	C519.604065,834.355103 518.684387,819.080444 517.701111,803.811707 
	C517.295044,797.505798 516.853088,791.194092 516.741150,784.879517 
	C516.612549,777.623230 519.769226,773.040771 526.783020,772.212341 
	C537.810913,770.909729 548.917969,769.005554 560.061951,770.282715 
	C578.136353,772.354248 589.272217,784.548950 589.614563,802.018860 
	C589.913940,817.294312 578.224548,830.303040 561.444946,833.285339 
	C557.357727,834.011780 553.251709,834.860413 549.124695,835.069946 
	C545.132080,835.272644 543.872009,837.041016 544.263062,840.748901 
	C544.506714,843.059387 544.447937,845.401794 544.585205,848.148499 
M557.403259,812.195618 
	C562.191772,809.956848 566.179077,806.985596 565.608459,800.987610 
	C565.187744,796.564941 562.365234,793.658691 558.182800,792.554321 
	C555.830017,791.933167 553.228210,792.072449 550.747620,792.151733 
	C542.267700,792.422668 541.882019,792.885376 542.397034,801.069946 
	C543.247925,814.589783 543.247864,814.589783 557.403259,812.195618 
z"/>
<path fill="#000000" opacity="1.000000" stroke="none" 
	d="
M425.151245,799.249756 
	C420.263885,809.274414 421.201996,818.355164 428.418243,826.419495 
	C435.145874,833.937866 443.703522,835.953064 452.944672,832.308350 
	C461.791382,828.819153 471.378845,834.380066 470.404846,843.328796 
	C469.888214,848.075256 467.283203,851.204224 463.097626,853.276672 
	C445.115814,862.180237 422.255402,856.504395 408.763489,839.746460 
	C394.703705,822.283081 394.835754,797.976990 409.080536,781.413086 
	C423.074066,765.141357 448.019714,760.590515 466.356293,770.942139 
	C469.753265,772.859802 472.653107,775.263733 474.687317,778.653625 
	C477.843842,783.913696 477.457489,788.830200 473.511444,792.799133 
	C469.751495,796.580933 464.157562,797.281738 459.290527,794.378723 
	C455.322937,792.012207 451.894043,788.704346 446.907593,788.304565 
	C437.557037,787.554810 430.341858,790.956238 425.151245,799.249756 
z"/>
<path fill="#000000" opacity="1.000000" stroke="none" 
	d="
M290.998474,323.299133 
	C287.456482,321.345428 284.765778,319.082764 285.074768,315.016357 
	C285.600861,308.093018 287.696228,306.635071 294.735687,307.931122 
	C310.364716,310.808655 323.897156,303.715729 329.597290,289.658691 
	C333.563171,279.878387 329.663391,266.395172 320.864807,259.466797 
	C311.129242,251.800598 300.011871,251.254227 290.377136,257.961060 
	C285.595520,261.289551 282.731934,265.710236 282.351501,271.644501 
	C282.164459,274.562225 276.169037,282.201508 273.614960,282.987030 
	C268.217651,284.646973 263.075165,280.396057 262.687653,273.858337 
	C262.015320,262.514618 267.019379,253.374771 274.776398,245.866760 
	C288.075378,232.994659 304.312134,231.610092 320.821747,237.253052 
	C336.780396,242.707687 345.866211,255.081635 348.222504,271.741821 
	C351.817413,297.159790 339.126984,317.182648 315.252869,324.428497 
	C307.229645,326.863495 299.196442,326.809418 290.998474,323.299133 
z"/>
<path fill="#000000" opacity="1.000000" stroke="none" 
	d="
M635.271790,770.900146 
	C640.902283,788.887512 646.465332,806.479614 651.946045,824.097290 
	C653.025696,827.567871 654.233337,831.093262 652.555481,834.781250 
	C650.461243,839.384338 645.960083,842.396057 641.154419,842.309570 
	C636.021790,842.217224 631.910828,839.347107 630.046570,833.801208 
	C626.126404,822.138733 622.461670,810.390015 618.726318,798.665833 
	C615.899292,789.792480 612.989380,780.942078 610.367249,772.007874 
	C607.933655,763.716187 610.732483,757.190979 617.245300,755.113342 
	C623.886108,752.994873 629.990112,756.588867 632.981934,764.409424 
	C633.754272,766.428467 634.446472,768.478149 635.271790,770.900146 
z"/>
<path fill="#000000" opacity="1.000000" stroke="none" 
	d="
M570.199707,173.715363 
	C577.235718,179.506165 582.105835,186.253250 583.730957,195.040222 
	C584.732056,200.453613 581.918945,205.800354 577.355774,207.143158 
	C571.983459,208.724106 567.055786,206.339432 564.744690,201.010239 
	C563.950256,199.178436 563.330994,197.264008 562.446777,195.478912 
	C557.372375,185.234268 543.496826,182.415939 534.838867,189.871368 
	C533.456543,191.061737 532.279175,192.486954 530.967468,193.762909 
	C526.730652,197.884216 521.734558,198.398712 517.468872,195.179520 
	C513.499207,192.183701 512.473572,187.124252 515.328369,182.160706 
	C520.304688,173.508408 528.368164,169.057327 537.759094,166.840652 
	C549.457642,164.079208 560.180237,166.522812 570.199707,173.715363 
z"/>
<path fill="#000000" opacity="1.000000" stroke="none" 
	d="
M811.474060,561.919800 
	C814.851257,561.277222 817.482361,562.208679 819.947021,563.748047 
	C828.418823,569.039246 836.950989,574.238586 845.318176,579.690979 
	C851.869995,583.960327 853.485474,589.907959 849.972534,595.382812 
	C846.429749,600.904419 839.621643,602.195557 833.265320,598.329346 
	C825.156738,593.397339 817.165344,588.273010 809.093445,583.280090 
	C804.439697,580.401428 801.879883,576.587646 802.655518,570.841614 
	C803.341797,565.756714 806.787964,563.540283 811.474060,561.919800 
z"/>
<path fill="#000000" opacity="1.000000" stroke="none" 
	d="
M708.940308,337.282410 
	C711.782349,344.107330 711.242249,347.940338 707.199585,351.527740 
	C703.712158,354.622375 698.889771,355.056610 694.762390,352.502014 
	C690.871826,350.094086 689.218201,346.521118 689.690735,341.969604 
	C690.152161,337.525421 692.685547,334.608368 696.772583,333.272156 
	C701.492249,331.729095 705.573608,333.022491 708.940308,337.282410 
z"/>
<path fill="#000000" opacity="1.000000" stroke="none" 
	d="
M641.052368,473.754059 
	C637.564514,467.295654 638.647400,461.582001 643.617493,458.646149 
	C648.286865,455.887878 653.669739,456.717621 656.581604,460.644562 
	C659.915894,465.141357 659.389954,471.598297 655.394409,475.218964 
	C651.162048,479.054230 646.292969,478.653503 641.052368,473.754059 
z"/>
<path fill="#000000" opacity="1.000000" stroke="none" 
	d="
M377.248566,460.910736 
	C379.441193,467.709137 378.659241,471.314819 374.581696,474.102264 
	C370.894928,476.622528 367.158752,476.717133 363.521851,474.007294 
	C359.392090,470.930206 358.346405,464.874237 361.153076,460.679749 
	C363.907867,456.562866 369.979675,455.445251 374.427856,458.309296 
	C375.387878,458.927399 376.168427,459.824219 377.248566,460.910736 
z"/>
<path fill="#000000" opacity="1.000000" stroke="none" 
	d="
M324.324158,367.646393 
	C316.290375,364.603394 313.774292,358.113647 318.439667,353.021912 
	C320.543976,350.725311 323.264679,349.261993 326.497467,350.196960 
	C330.250061,351.282288 331.295563,354.486206 331.855621,357.910370 
	C332.441986,361.495270 331.529175,364.531891 328.462158,366.679291 
	C327.360504,367.450684 326.083160,367.870636 324.324158,367.646393 
z"/>
<path fill="#000000" opacity="1.000000" stroke="none" 
	d="
M557.658813,246.650253 
	C558.761963,252.067612 556.051636,254.887680 551.811035,256.588715 
	C548.236450,258.022583 545.756775,256.074341 543.729248,253.406967 
	C541.158936,250.025528 541.389954,246.611771 543.986877,243.366989 
	C547.712708,238.711639 554.013489,240.084274 557.658813,246.650253 
z"/>
<path fill="#000000" opacity="1.000000" stroke="none" 
	d="
M481.441193,574.907166 
	C483.919647,575.817932 485.446838,577.364807 486.869568,578.992249 
	C499.819489,593.805420 527.339905,592.690125 538.651855,578.876770 
	C542.914368,573.671692 548.249817,573.488403 552.664978,577.333435 
	C556.663452,580.815552 556.477600,586.515137 552.185425,591.568542 
	C543.642944,601.625916 532.424133,606.612122 519.615295,607.973755 
	C504.548767,609.575500 490.460663,606.869934 478.460236,596.811707 
	C476.156006,594.880371 473.945831,592.845764 472.364868,590.270691 
	C470.321472,586.942444 468.553833,583.468506 470.874603,579.557129 
	C473.159546,575.705994 476.718201,574.370483 481.441193,574.907166 
z"/>
<path fill="#000000" opacity="1.000000" stroke="none" 
	d="
M458.608643,530.099854 
	C466.033142,531.598267 470.074219,536.014832 471.299957,542.920166 
	C472.434845,549.313538 469.301117,553.967041 464.189270,557.178101 
	C459.703064,559.996094 454.698730,560.541443 450.021973,557.508423 
	C445.024261,554.267212 442.553314,549.361633 443.026642,543.468201 
	C443.521027,537.312012 446.963409,532.982666 452.833466,530.807617 
	C454.541626,530.174683 456.333893,529.691162 458.608643,530.099854 
z"/>
<path fill="#000000" opacity="1.000000" stroke="none" 
	d="
M553.762329,545.767456 
	C554.048645,536.008423 559.573059,530.301147 568.069214,530.542664 
	C576.453064,530.781067 582.520874,537.044312 582.279663,545.210815 
	C582.043213,553.214600 574.919617,559.639587 566.677307,559.283020 
	C560.498840,559.015747 555.770569,554.215637 553.762329,545.767456 
z"/>
</svg>